<svg xmlns="http://www.w3.org/2000/svg" width="36" height="47.255" viewBox="0 0 36 47.255">
  <g id="Group_5689" data-name="Group 5689" transform="translate(-241 -857)">
    <g id="location" transform="translate(180.029 857)">
      <g id="Group_751" data-name="Group 751" transform="translate(60.971 0)">
        <g id="Group_750" data-name="Group 750">
          <path id="Path_12367" data-name="Path 12367" d="M96.1,12.382A17.614,17.614,0,0,0,84.675.867a18.1,18.1,0,0,0-23.7,17.215,17.85,17.85,0,0,0,3.592,10.792l14.41,18.38L93.364,28.9l.018-.023A18.2,18.2,0,0,0,96.1,12.382ZM91.175,27.2l-12.2,15.566L66.77,27.2a15.1,15.1,0,0,1-3.03-9.119A15.337,15.337,0,0,1,83.856,3.513,14.81,14.81,0,0,1,93.45,13.2,15.461,15.461,0,0,1,91.175,27.2Z" transform="translate(-60.971 0)" fill="#912022"/>
        </g>
      </g>
      <g id="Group_753" data-name="Group 753" transform="translate(69.01 8.227)">
        <g id="Group_752" data-name="Group 752" transform="translate(0)">
          <path id="Path_12368" data-name="Path 12368" d="M160.956,90.895a9.962,9.962,0,1,0,9.962,9.962A9.974,9.974,0,0,0,160.956,90.895Zm0,17.079a7.116,7.116,0,1,1,7.116-7.116A7.124,7.124,0,0,1,160.956,107.974Z" transform="translate(-150.994 -90.895)" fill="#912022"/>
        </g>
      </g>
    </g>
  </g>
</svg>
