<svg id="Group_749" data-name="Group 749" xmlns="http://www.w3.org/2000/svg" width="36" height="27.422" viewBox="0 0 36 27.422">
  <path id="Path_12366" data-name="Path 12366" d="M32.836,61H3.164A3.169,3.169,0,0,0,0,64.164V85.258a3.169,3.169,0,0,0,3.164,3.164H32.836A3.169,3.169,0,0,0,36,85.258V64.164A3.169,3.169,0,0,0,32.836,61ZM32.4,63.109,18.067,77.441,3.611,63.109ZM2.109,84.821V64.591L12.268,74.662ZM3.6,86.313,13.766,76.147l3.562,3.531a1.055,1.055,0,0,0,1.488,0L22.289,76.2,32.4,86.313Zm30.29-1.492-10.11-10.11L33.891,64.6Z" transform="translate(0 -61)" fill="#912022"/>
</svg>
